<svg width="192" height="192" viewBox="0 0 192 192" fill="none" xmlns="http://www.w3.org/2000/svg">
<g clip-path="url(#clip0_3015_193)">
<rect width="192" height="192" rx="96" fill="url(#paint0_radial_3015_193)"/>
<path d="M74.7324 198.19C68.3327 200.671 61.9657 200.829 55.6494 199.214C42.9459 195.964 30.4286 185.531 18.5352 172.249C6.66747 158.996 -4.42417 143.089 -14.3359 129.11C-19.2834 122.133 -23.9411 115.63 -28.2393 110.209C-32.526 104.803 -36.5121 100.399 -40.125 97.666C-43.2914 95.2712 -44.9545 91.6437 -45.209 87.0469C-45.4647 82.4254 -44.2871 76.8783 -41.8018 70.832C-36.8334 58.7452 -26.7504 44.931 -13.2266 33.0537C13.834 9.28807 54.291 -6.43079 94.5713 14.4414C115.237 25.1497 136.748 27.3026 156.654 26.6816C166.606 26.3712 176.175 25.3665 185.038 24.3848C193.921 23.4009 202.063 22.4438 209.241 22.21C216.429 21.9758 222.518 22.4741 227.318 24.3203C232.059 26.1436 235.573 29.2904 237.656 34.4902C239.765 39.7517 240.44 47.1938 239.262 57.625C238.085 68.0417 235.074 81.3375 229.912 98.2393C219.58 132.066 209.309 150.075 199.025 159.201C188.854 168.228 178.545 168.668 167.641 166.881C162.124 165.977 156.6 164.531 150.769 163.322C144.992 162.124 139.026 161.188 132.893 161.388C120.534 161.79 107.691 166.801 94.2217 182.982C87.6664 190.858 81.1463 195.705 74.7324 198.19Z" stroke="#6D6E73" stroke-width="2.27027"/>
<path d="M74.7324 198.19C68.3327 200.671 61.9657 200.829 55.6494 199.214C42.9459 195.964 30.4286 185.531 18.5352 172.249C6.66747 158.996 -4.42417 143.089 -14.3359 129.11C-19.2834 122.133 -23.9411 115.63 -28.2393 110.209C-32.526 104.803 -36.5121 100.399 -40.125 97.666C-43.2914 95.2712 -44.9545 91.6437 -45.209 87.0469C-45.4647 82.4254 -44.2871 76.8783 -41.8018 70.832C-36.8334 58.7452 -26.7504 44.931 -13.2266 33.0537C13.834 9.28807 54.291 -6.43079 94.5713 14.4414C115.237 25.1497 136.748 27.3026 156.654 26.6816C166.606 26.3712 176.175 25.3665 185.038 24.3848C193.921 23.4009 202.063 22.4438 209.241 22.21C216.429 21.9758 222.518 22.4741 227.318 24.3203C232.059 26.1436 235.573 29.2904 237.656 34.4902C239.765 39.7517 240.44 47.1938 239.262 57.625C238.085 68.0417 235.074 81.3375 229.912 98.2393C219.58 132.066 209.309 150.075 199.025 159.201C188.854 168.228 178.545 168.668 167.641 166.881C162.124 165.977 156.6 164.531 150.769 163.322C144.992 162.124 139.026 161.188 132.893 161.388C120.534 161.79 107.691 166.801 94.2217 182.982C87.6664 190.858 81.1463 195.705 74.7324 198.19Z" stroke="#6D6E73" stroke-width="2.27027"/>
<path d="M77.6787 184.645C72.152 186.787 66.6527 186.923 61.2021 185.529C50.2505 182.727 39.4811 173.742 29.2705 162.339C19.0781 150.957 9.55319 137.297 1.04883 125.303C-3.19717 119.315 -7.19151 113.738 -10.877 109.09C-14.5543 104.452 -17.9646 100.686 -21.0479 98.354C-23.812 96.2634 -25.2552 93.1006 -25.4756 89.1196C-25.6969 85.1211 -24.6775 80.3356 -22.5391 75.1333C-18.2638 64.7328 -9.59353 52.8578 2.02734 42.6519C25.2782 22.2321 60.07 8.7016 94.7207 26.6567C112.421 35.8287 130.85 37.6745 147.919 37.1421C156.452 36.8759 164.659 36.0148 172.265 35.1724C179.885 34.3283 186.879 33.5062 193.048 33.3052C199.223 33.104 204.475 33.5311 208.626 35.1274C212.734 36.7074 215.785 39.4395 217.591 43.9468C219.415 48.4981 219.992 54.9158 218.979 63.8794C217.968 72.833 215.381 84.2544 210.949 98.7642C202.081 127.8 193.256 143.291 184.396 151.155C175.615 158.947 166.71 159.322 157.326 157.785C152.588 157.008 147.832 155.764 142.84 154.729C137.887 153.702 132.782 152.901 127.538 153.072C116.983 153.415 106.003 157.691 94.4707 171.546C88.8324 178.32 83.2155 182.499 77.6787 184.645Z" stroke="#6D6E73" stroke-width="1.62162"/>
<path d="M80.7383 172.487C76.0009 174.323 71.2864 174.439 66.6211 173.246C57.2648 170.852 48.0999 163.191 39.4482 153.529C30.8058 143.877 22.7314 132.296 15.5342 122.146C11.9388 117.075 8.56043 112.36 5.44531 108.431C2.33423 104.507 -0.534953 101.341 -3.11621 99.3892C-5.53517 97.5595 -6.78365 94.7986 -6.97363 91.3677C-7.16405 87.9275 -6.28666 83.8331 -4.4668 79.4058C-0.827831 70.5531 6.54116 60.4653 16.4053 51.8022C36.1381 34.4721 65.7173 22.9479 95.1943 38.2222C110.123 45.9581 125.675 47.5198 140.102 47.0698C147.314 46.8448 154.253 46.1161 160.692 45.4028C167.139 44.6888 173.075 43.9914 178.311 43.8208C183.55 43.6501 188.041 44.0098 191.607 45.3813C195.152 46.7446 197.795 49.1107 199.354 53.0024C200.923 56.9167 201.407 62.4036 200.548 70.0132C199.689 77.6173 197.494 87.3047 193.739 99.5972C186.227 124.191 178.737 137.37 171.176 144.081C163.655 150.755 156.018 151.068 148.03 149.759C144.013 149.101 139.96 148.044 135.754 147.171C131.567 146.303 127.27 145.63 122.862 145.773C114.013 146.061 104.787 149.638 95.0674 161.316C90.2724 167.077 85.4808 170.649 80.7383 172.487Z" stroke="#6D6E73" stroke-width="0.823795"/>
<path d="M81.3311 153.866C77.1927 155.368 73.0731 155.464 68.9971 154.487C60.8256 152.53 52.8241 146.264 45.2715 138.366C37.7261 130.475 30.6767 121.008 24.3916 112.707C21.2519 108.56 18.301 104.703 15.5801 101.489C12.863 98.2803 10.3561 95.6904 8.10059 94.0928C5.99326 92.6003 4.91003 90.3525 4.74512 87.5625C4.57965 84.7613 5.34221 81.4222 6.92969 77.8057C10.104 70.5743 16.535 62.3292 25.1475 55.2461C42.3749 41.0779 68.2093 31.6488 93.9551 44.1416C106.991 50.4672 120.57 51.7439 133.166 51.376C139.464 51.192 145.522 50.5969 151.146 50.0137C156.775 49.4298 161.959 48.8592 166.532 48.7197C171.108 48.5801 175.031 48.8741 178.146 49.9961C181.244 51.1117 183.545 53.0453 184.901 56.2148C186.266 59.4041 186.69 63.8798 185.94 70.0977C185.191 76.311 183.274 84.2295 179.996 94.2803C173.438 114.387 166.901 125.156 160.304 130.639C153.738 136.095 147.067 136.353 140.088 135.282C136.58 134.744 133.04 133.878 129.367 133.165C125.712 132.455 121.961 131.905 118.113 132.022C110.391 132.258 102.333 135.18 93.8398 144.735C89.6554 149.443 85.4728 152.363 81.3311 153.866Z" stroke="#6D6E73" stroke-width="0.740918"/>
<path d="M94.2344 124.852C87.1999 131.247 80.1248 132.833 73.2334 131.499C66.3297 130.163 59.5922 125.893 53.2559 120.538C46.9211 115.185 41.0042 108.762 35.7344 103.139C33.1009 100.328 30.6281 97.7165 28.3486 95.541C26.0704 93.3668 23.9765 91.6205 22.1006 90.5469C20.2898 89.5105 19.3762 87.9594 19.2373 86.0605C19.0977 84.1515 19.7409 81.879 21.0762 79.4209C23.746 74.5063 29.1529 68.9066 36.3906 64.0967C50.8648 54.4778 72.6062 48.0547 94.2842 56.5547C105.183 60.8282 116.54 61.6934 127.089 61.4443C132.364 61.3198 137.439 60.9168 142.155 60.5215C146.874 60.126 151.229 59.7383 155.072 59.6436C158.917 59.5488 162.235 59.748 164.88 60.5176C167.52 61.2859 169.478 62.6189 170.627 64.7891C171.779 66.9653 172.133 70.0093 171.504 74.2266C170.875 78.4425 169.266 83.813 166.516 90.627C161.015 104.254 155.525 111.574 149.962 115.31C144.406 119.04 138.752 119.214 132.872 118.485C121.118 117.028 108.444 111.934 94.2344 124.852Z" stroke="#6D6E73" stroke-width="0.324324"/>
<path d="M60.5469 107.547C59.1828 108.063 57.8249 108.096 56.4805 107.76C53.7819 107.086 51.1333 104.926 48.6279 102.194C46.126 99.4661 43.789 96.1917 41.7031 93.3193C40.6615 91.8849 39.6818 90.5501 38.7783 89.4375C37.8765 88.3269 37.0416 87.4278 36.2891 86.8721C35.6009 86.3638 35.2448 85.596 35.1904 84.6367C35.1359 83.6734 35.3875 82.523 35.9131 81.2744C36.964 78.778 39.0942 75.929 41.9482 73.4814C47.6579 68.5853 56.2109 65.3344 64.7314 69.6455C69.0653 71.8382 73.5784 72.2807 77.7617 72.1533C79.8532 72.0896 81.8656 71.8834 83.7314 71.6816C85.5999 71.4796 87.3179 71.2826 88.833 71.2344C90.3494 71.1862 91.6442 71.2877 92.6699 71.6729C93.6873 72.0549 94.4432 72.716 94.8896 73.8037C95.3397 74.9004 95.48 76.4436 95.2314 78.5928C94.9831 80.7399 94.3482 83.4777 93.2607 86.9541C91.085 93.9096 88.9182 97.6275 86.7373 99.5176C84.5716 101.394 82.373 101.484 80.0645 101.114C78.9013 100.928 77.7305 100.63 76.5088 100.383C75.2948 100.137 74.0464 99.9456 72.7646 99.9863C70.1885 100.068 67.5044 101.086 64.6807 104.398C63.295 106.024 61.9128 107.03 60.5469 107.547Z" stroke="#6D6E73" stroke-width="0.324324"/>
<path d="M136.017 108.206C131.865 110.271 125.414 110.272 120.632 107.239C118.245 105.726 116.275 103.457 115.211 100.309C114.147 97.1587 113.986 93.1169 115.24 88.0557C117.761 77.8848 120.104 72.8542 123.228 70.3506C126.345 67.8516 130.271 67.8447 136.089 67.8447C145.704 68.244 151.809 68.8758 155.563 69.8047C157.441 70.2692 158.717 70.8046 159.547 71.4121C160.371 72.0152 160.755 72.6882 160.858 73.4414C160.963 74.2044 160.784 75.069 160.439 76.0566C160.095 77.0444 159.594 78.1308 159.073 79.3418C158.035 81.7555 156.931 84.6287 156.932 88.0166C156.932 94.6569 153.818 98.6506 149.65 101.513C147.562 102.947 145.209 104.096 142.849 105.149C140.493 106.2 138.121 107.16 136.017 108.206Z" stroke="#6D6E73" stroke-width="0.324324"/>
<path d="M49.388 102.555L70.6196 140.474L93.9479 94.2542L115.354 140.474L166.379 51.7913" stroke="white" stroke-width="22.0178"/>
<line x1="19.2632" y1="105.751" x2="70.4633" y2="76.0444" stroke="white" stroke-width="25.3379"/>
</g>
<defs>
<radialGradient id="paint0_radial_3015_193" cx="0" cy="0" r="1" gradientUnits="userSpaceOnUse" gradientTransform="translate(96 96) rotate(43.2693) scale(159.458)">
<stop stop-color="#4BB9A3"/>
<stop offset="0.746051"/>
</radialGradient>
<clipPath id="clip0_3015_193">
<rect width="192" height="192" rx="96" fill="white"/>
</clipPath>
</defs>
</svg>
