<svg width="592" height="592" viewBox="0 0 592 592" fill="none" xmlns="http://www.w3.org/2000/svg">
<g clip-path="url(#clip0_3015_193)">
<rect width="592" height="592" rx="296" fill="url(#paint0_radial_3015_193)"/>
<path d="M230.425 611.086C210.692 618.734 191.061 619.223 171.586 614.242C132.417 604.222 93.8228 572.055 57.1514 531.102C20.5589 490.237 -13.6406 441.191 -44.2021 398.089C-59.4568 376.576 -73.8176 356.526 -87.0703 339.812C-100.288 323.142 -112.578 309.562 -123.718 301.136C-133.481 293.752 -138.609 282.569 -139.394 268.395C-140.182 254.145 -136.55 237.041 -128.887 218.398C-113.567 181.13 -82.4797 138.538 -40.7812 101.917C42.6555 28.6387 167.399 -19.8295 291.597 44.5269C355.316 77.5444 421.641 84.1827 483.02 82.2681C513.702 81.3109 543.206 78.2129 570.534 75.186C597.923 72.1524 623.027 69.2031 645.161 68.4819C667.323 67.7599 686.096 69.2962 700.898 74.9888C715.517 80.6105 726.35 90.3123 732.774 106.345C739.275 122.568 741.356 145.515 737.725 177.678C734.098 209.797 724.813 250.791 708.896 302.906C677.039 407.204 645.371 462.729 613.663 490.869C582.3 518.702 550.516 520.059 516.893 514.549C499.882 511.762 482.849 507.307 464.87 503.579C447.058 499.885 428.665 496.996 409.753 497.611C371.646 498.851 332.046 514.302 290.517 564.197C270.304 588.48 250.201 603.422 230.425 611.086Z" stroke="#6D6E73" stroke-width="7"/>
<path d="M230.425 611.086C210.692 618.734 191.061 619.223 171.586 614.242C132.417 604.222 93.8228 572.055 57.1514 531.102C20.5589 490.237 -13.6406 441.191 -44.2021 398.089C-59.4568 376.576 -73.8176 356.526 -87.0703 339.812C-100.288 323.142 -112.578 309.562 -123.718 301.136C-133.481 293.752 -138.609 282.569 -139.394 268.395C-140.182 254.145 -136.55 237.041 -128.887 218.398C-113.567 181.13 -82.4797 138.538 -40.7812 101.917C42.6555 28.6387 167.399 -19.8295 291.597 44.5269C355.316 77.5444 421.641 84.1827 483.02 82.2681C513.702 81.3109 543.206 78.2129 570.534 75.186C597.923 72.1524 623.027 69.2031 645.161 68.4819C667.323 67.7599 686.096 69.2962 700.898 74.9888C715.517 80.6105 726.35 90.3123 732.774 106.345C739.275 122.568 741.356 145.515 737.725 177.678C734.098 209.797 724.813 250.791 708.896 302.906C677.039 407.204 645.371 462.729 613.663 490.869C582.3 518.702 550.516 520.059 516.893 514.549C499.882 511.762 482.849 507.307 464.87 503.579C447.058 499.885 428.665 496.996 409.753 497.611C371.646 498.851 332.046 514.302 290.517 564.197C270.304 588.48 250.201 603.422 230.425 611.086Z" stroke="#6D6E73" stroke-width="7"/>
<path d="M239.51 569.322C222.469 575.926 205.514 576.346 188.708 572.047C154.94 563.409 121.735 535.705 90.252 500.546C58.8253 465.451 29.4571 423.332 3.23535 386.351C-9.85674 367.887 -22.1735 350.693 -33.5371 336.361C-44.8757 322.061 -55.3899 310.448 -64.8965 303.258C-73.4195 296.812 -77.8694 287.061 -78.5488 274.787C-79.2313 262.457 -76.088 247.702 -69.4941 231.661C-56.3121 199.592 -29.581 162.979 6.25 131.51C77.9403 68.5488 185.217 26.829 292.057 82.1909C346.633 110.471 403.457 116.165 456.085 114.523C482.395 113.702 507.697 111.046 531.149 108.449C554.645 105.846 576.213 103.313 595.232 102.693C614.272 102.073 630.464 103.387 643.263 108.309C655.93 113.18 665.335 121.604 670.904 135.501C676.528 149.535 678.306 169.324 675.186 196.963C672.068 224.57 664.091 259.784 650.427 304.522C623.082 394.049 595.872 441.813 568.552 466.059C541.478 490.086 514.023 491.242 485.09 486.501C470.481 484.108 455.816 480.274 440.424 477.083C425.151 473.916 409.412 471.446 393.241 471.972C360.698 473.031 326.844 486.212 291.285 528.934C273.9 549.821 256.582 562.706 239.51 569.322Z" stroke="#6D6E73" stroke-width="5"/>
<path d="M248.942 531.835C234.335 537.496 219.799 537.853 205.414 534.174C176.565 526.794 148.309 503.17 121.633 473.38C94.9854 443.621 70.089 407.915 47.8975 376.618C36.8113 360.983 26.3952 346.443 16.79 334.329C7.19755 322.231 -1.64952 312.471 -9.6084 306.451C-17.0676 300.81 -20.9164 292.296 -21.502 281.716C-22.089 271.108 -19.3849 258.484 -13.7734 244.833C-2.55328 217.538 20.1679 186.436 50.582 159.725C111.425 106.29 202.629 70.7548 293.517 117.851C339.548 141.703 387.498 146.519 431.98 145.132C454.219 144.438 475.613 142.192 495.469 139.993C515.347 137.791 533.648 135.64 549.792 135.114C565.946 134.588 579.792 135.698 590.789 139.927C601.719 144.13 609.867 151.425 614.676 163.425C619.512 175.494 621.005 192.41 618.355 215.873C615.708 239.32 608.938 269.19 597.361 307.093C574.2 382.925 551.105 423.558 527.791 444.249C504.602 464.828 481.054 465.795 456.427 461.76C444.041 459.73 431.544 456.468 418.574 453.778C405.665 451.102 392.417 449.026 378.825 449.468C351.54 450.356 323.094 461.384 293.124 497.392C278.339 515.154 263.565 526.168 248.942 531.835Z" stroke="#6D6E73" stroke-width="2.54003"/>
<path d="M250.772 474.422C238.012 479.053 225.309 479.346 212.741 476.335C187.546 470.299 162.875 450.983 139.588 426.63C116.322 402.3 94.5865 373.106 75.207 347.512C65.5262 334.727 56.4286 322.834 48.0391 312.926C39.6607 303.031 31.9307 295.044 24.9756 290.118C18.4781 285.516 15.1403 278.588 14.6318 269.985C14.1214 261.348 16.472 251.051 21.3672 239.899C31.1547 217.603 50.9837 192.181 77.5391 170.341C130.657 126.655 210.313 97.5827 289.696 136.103C329.891 155.607 371.757 159.544 410.596 158.409C430.014 157.842 448.694 156.006 466.033 154.208C483.391 152.408 499.374 150.649 513.474 150.219C527.583 149.788 539.679 150.695 549.286 154.154C558.838 157.594 565.93 163.556 570.112 173.328C574.32 183.162 575.627 196.961 573.315 216.133C571.005 235.291 565.096 259.706 554.988 290.696C534.767 352.695 514.61 385.898 494.269 402.803C474.026 419.626 453.457 420.421 431.938 417.119C421.122 415.459 410.206 412.791 398.883 410.593C387.611 408.404 376.045 406.707 364.182 407.068C340.371 407.794 315.527 416.806 289.341 446.268C276.439 460.783 263.543 469.787 250.772 474.422Z" stroke="#6D6E73" stroke-width="2.2845"/>
<path d="M290.556 384.959C268.866 404.678 247.052 409.567 225.804 405.455C204.517 401.334 183.745 388.168 164.208 371.659C144.676 355.153 126.429 335.352 110.181 318.011C102.061 309.346 94.4367 301.292 87.4082 294.584C80.384 287.881 73.9294 282.497 68.1455 279.187C62.5619 275.991 59.7457 271.209 59.3174 265.354C58.8868 259.468 60.8691 252.461 64.9863 244.882C73.2181 229.729 89.8877 212.462 112.204 197.631C156.833 167.973 223.869 148.169 290.71 174.377C324.316 187.554 359.33 190.22 391.857 189.453C408.121 189.069 423.771 187.826 438.312 186.607C452.861 185.388 466.291 184.193 478.142 183.901C489.996 183.609 500.225 184.221 508.38 186.594C516.521 188.963 522.557 193.075 526.101 199.767C529.654 206.477 530.745 215.863 528.805 228.867C526.865 241.866 521.905 258.425 513.425 279.434C496.465 321.451 479.538 344.019 462.385 355.539C445.254 367.042 427.821 367.578 409.69 365.33C373.45 360.836 334.368 345.129 290.556 384.959Z" stroke="#6D6E73"/>
<path d="M186.685 331.602C182.478 333.193 178.292 333.295 174.146 332.26C165.826 330.181 157.661 323.522 149.937 315.099C142.222 306.687 135.014 296.592 128.583 287.735C125.371 283.312 122.351 279.196 119.565 275.766C116.785 272.341 114.212 269.568 111.892 267.854C109.77 266.287 108.67 263.922 108.502 260.964C108.334 257.993 109.11 254.446 110.73 250.596C113.971 242.898 120.539 234.116 129.339 226.569C146.944 211.472 173.315 201.447 199.587 214.74C212.95 221.502 226.867 222.865 239.766 222.472C246.214 222.275 252.417 221.64 258.17 221.018C263.932 220.394 269.229 219.786 273.9 219.638C278.576 219.489 282.569 219.804 285.731 220.991C288.868 222.169 291.198 224.208 292.574 227.562C293.962 230.944 294.397 235.701 293.631 242.327C292.865 248.947 290.907 257.388 287.554 268.107C280.845 289.555 274.163 301.019 267.438 306.847C260.761 312.633 253.982 312.909 246.864 311.771C243.278 311.197 239.669 310.275 235.902 309.513C232.159 308.755 228.309 308.165 224.356 308.291C216.413 308.543 208.138 311.682 199.432 321.896C195.159 326.908 190.896 330.008 186.685 331.602Z" stroke="#6D6E73"/>
<path d="M419.384 333.635C406.583 340.001 386.693 340.005 371.949 330.654C364.591 325.988 358.515 318.992 355.234 309.284C351.952 299.572 351.458 287.111 355.326 271.505C363.1 240.145 370.321 224.633 379.951 216.914C389.561 209.211 401.658 209.188 419.587 209.188C449.245 210.419 468.076 212.367 479.655 215.231C485.446 216.664 489.379 218.315 491.938 220.188C494.479 222.048 495.663 224.121 495.982 226.443C496.306 228.796 495.752 231.462 494.688 234.508C493.625 237.554 492.082 240.904 490.476 244.638C487.275 252.08 483.872 260.939 483.873 271.385C483.874 291.859 474.274 304.173 461.422 312.998C454.984 317.419 447.731 320.962 440.452 324.21C433.19 327.45 425.871 330.408 419.384 333.635Z" stroke="#6D6E73"/>
<path d="M152.281 316.21L217.745 433.129L289.674 290.617L355.676 433.129L513.004 159.69" stroke="white" stroke-width="67.8882"/>
<line x1="59.3944" y1="326.065" x2="217.261" y2="234.47" stroke="white" stroke-width="78.1253"/>
</g>
<defs>
<radialGradient id="paint0_radial_3015_193" cx="0" cy="0" r="1" gradientUnits="userSpaceOnUse" gradientTransform="translate(296 296) rotate(43.2693) scale(491.663)">
<stop stop-color="#4BB9A3"/>
<stop offset="0.746051"/>
</radialGradient>
<clipPath id="clip0_3015_193">
<rect width="592" height="592" rx="296" fill="white"/>
</clipPath>
</defs>
</svg>
