<?xml version="1.0" encoding="UTF-8"?>
<svg xmlns="http://www.w3.org/2000/svg" viewBox="0 0 800 800" width="800" height="800" fill="none" color="currentColor">
  <g opacity="1">
    <path d="M 0.0 -4.6 C 28.6 -4.6, 28.6 -10.3, 57.1 -10.3 C 85.7 -10.3, 85.7 -33.7, 114.3 -33.7 C 142.9 -33.7, 142.9 -41.4, 171.4 -41.4 C 200.0 -41.4, 200.0 -71.5, 228.6 -71.5 C 257.1 -71.5, 257.1 -84.1, 285.7 -84.1 C 314.3 -84.1, 314.3 -44.7, 342.9 -44.7 C 371.4 -44.7, 371.4 -22.3, 400.0 -22.3 C 428.6 -22.3, 428.6 -21.0, 457.1 -21.0 C 485.7 -21.0, 485.7 -8.3, 514.3 -8.3 C 542.9 -8.3, 542.9 -30.5, 571.4 -30.5 C 600.0 -30.5, 600.0 -68.5, 628.6 -68.5 C 657.1 -68.5, 657.1 -58.0, 685.7 -58.0 C 714.3 -58.0, 714.3 -41.7, 742.9 -41.7 C 771.4 -41.7, 771.4 -39.6, 800.0 -39.6" stroke="currentColor" stroke-width="0.67" fill="none" stroke-linecap="round"></path>
    <path d="M 0.0 37.5 C 28.6 37.5, 28.6 44.5, 57.1 44.5 C 85.7 44.5, 85.7 21.7, 114.3 21.7 C 142.9 21.7, 142.9 14.1, 171.4 14.1 C 200.0 14.1, 200.0 -7.5, 228.6 -7.5 C 257.1 -7.5, 257.1 -35.1, 285.7 -35.1 C 314.3 -35.1, 314.3 -13.0, 342.9 -13.0 C 371.4 -13.0, 371.4 21.0, 400.0 21.0 C 428.6 21.0, 428.6 24.8, 457.1 24.8 C 485.7 24.8, 485.7 35.2, 514.3 35.2 C 542.9 35.2, 542.9 37.3, 571.4 37.3 C 600.0 37.3, 600.0 0.0, 628.6 0.0 C 657.1 0.0, 657.1 -17.8, 685.7 -17.8 C 714.3 -17.8, 714.3 1.8, 742.9 1.8 C 771.4 1.8, 771.4 7.4, 800.0 7.4" stroke="currentColor" stroke-width="0.86" fill="none" stroke-linecap="round"></path>
    <path d="M 0.0 89.9 C 28.6 89.9, 28.6 59.0, 57.1 59.0 C 85.7 59.0, 85.7 50.5, 114.3 50.5 C 142.9 50.5, 142.9 34.4, 171.4 34.4 C 200.0 34.4, 200.0 13.3, 228.6 13.3 C 257.1 13.3, 257.1 39.0, 285.7 39.0 C 314.3 39.0, 314.3 82.4, 342.9 82.4 C 371.4 82.4, 371.4 87.9, 400.0 87.9 C 428.6 87.9, 428.6 84.7, 457.1 84.7 C 485.7 84.7, 485.7 88.8, 514.3 88.8 C 542.9 88.8, 542.9 59.9, 571.4 59.9 C 600.0 59.9, 600.0 23.9, 628.6 23.9 C 657.1 23.9, 657.1 35.9, 685.7 35.9 C 714.3 35.9, 714.3 60.3, 742.9 60.3 C 771.4 60.3, 771.4 61.8, 800.0 61.8" stroke="currentColor" stroke-width="0.83" fill="none" stroke-linecap="round"></path>
    <path d="M 0.0 91.4 C 28.6 91.4, 28.6 89.6, 57.1 89.6 C 85.7 89.6, 85.7 84.9, 114.3 84.9 C 142.9 84.9, 142.9 71.9, 171.4 71.9 C 200.0 71.9, 200.0 78.5, 228.6 78.5 C 257.1 78.5, 257.1 115.2, 285.7 115.2 C 314.3 115.2, 314.3 148.6, 342.9 148.6 C 371.4 148.6, 371.4 149.9, 400.0 149.9 C 428.6 149.9, 428.6 135.4, 457.1 135.4 C 485.7 135.4, 485.7 130.6, 514.3 130.6 C 542.9 130.6, 542.9 125.1, 571.4 125.1 C 600.0 125.1, 600.0 98.6, 628.6 98.6 C 657.1 98.6, 657.1 68.5, 685.7 68.5 C 714.3 68.5, 714.3 69.8, 742.9 69.8 C 771.4 69.8, 771.4 98.3, 800.0 98.3" stroke="currentColor" stroke-width="0.67" fill="none" stroke-linecap="round"></path>
    <path d="M 0.0 135.0 C 28.6 135.0, 28.6 136.8, 57.1 136.8 C 85.7 136.8, 85.7 127.4, 114.3 127.4 C 142.9 127.4, 142.9 124.7, 171.4 124.7 C 200.0 124.7, 200.0 156.3, 228.6 156.3 C 257.1 156.3, 257.1 196.5, 285.7 196.5 C 314.3 196.5, 314.3 202.6, 342.9 202.6 C 371.4 202.6, 371.4 184.5, 400.0 184.5 C 428.6 184.5, 428.6 176.0, 457.1 176.0 C 485.7 176.0, 485.7 169.1, 514.3 169.1 C 542.9 169.1, 542.9 140.3, 571.4 140.3 C 600.0 140.3, 600.0 112.5, 628.6 112.5 C 657.1 112.5, 657.1 123.5, 685.7 123.5 C 714.3 123.5, 714.3 156.8, 742.9 156.8 C 771.4 156.8, 771.4 170.6, 800.0 170.6" stroke="currentColor" stroke-width="0.75" fill="none" stroke-linecap="round"></path>
    <path d="M 0.0 194.3 C 28.6 194.3, 28.6 205.3, 57.1 205.3 C 85.7 205.3, 85.7 227.1, 114.3 227.1 C 142.9 227.1, 142.9 236.8, 171.4 236.8 C 200.0 236.8, 200.0 222.8, 228.6 222.8 C 257.1 222.8, 257.1 202.6, 285.7 202.6 C 314.3 202.6, 314.3 194.2, 342.9 194.2 C 371.4 194.2, 371.4 190.8, 400.0 190.8 C 428.6 190.8, 428.6 179.7, 457.1 179.7 C 485.7 179.7, 485.7 170.8, 514.3 170.8 C 542.9 170.8, 542.9 182.4, 571.4 182.4 C 600.0 182.4, 600.0 208.1, 628.6 208.1 C 657.1 208.1, 657.1 222.9, 685.7 222.9 C 714.3 222.9, 714.3 219.2, 742.9 219.2 C 771.4 219.2, 771.4 213.9, 800.0 213.9" stroke="currentColor" stroke-width="0.89" fill="none" stroke-linecap="round"></path>
    <path d="M 0.0 231.7 C 28.6 231.7, 28.6 250.3, 57.1 250.3 C 85.7 250.3, 85.7 270.6, 114.3 270.6 C 142.9 270.6, 142.9 255.6, 171.4 255.6 C 200.0 255.6, 200.0 233.1, 228.6 233.1 C 257.1 233.1, 257.1 228.1, 285.7 228.1 C 314.3 228.1, 314.3 216.5, 342.9 216.5 C 371.4 216.5, 371.4 210.0, 400.0 210.0 C 428.6 210.0, 428.6 235.8, 457.1 235.8 C 485.7 235.8, 485.7 258.1, 514.3 258.1 C 542.9 258.1, 542.9 252.4, 571.4 252.4 C 600.0 252.4, 600.0 249.8, 628.6 249.8 C 657.1 249.8, 657.1 247.3, 685.7 247.3 C 714.3 247.3, 714.3 224.3, 742.9 224.3 C 771.4 224.3, 771.4 216.0, 800.0 216.0" stroke="currentColor" stroke-width="0.66" fill="none" stroke-linecap="round"></path>
    <path d="M 0.0 251.9 C 28.6 251.9, 28.6 248.2, 57.1 248.2 C 85.7 248.2, 85.7 255.3, 114.3 255.3 C 142.9 255.3, 142.9 297.8, 171.4 297.8 C 200.0 297.8, 200.0 309.5, 228.6 309.5 C 257.1 309.5, 257.1 285.6, 285.7 285.6 C 314.3 285.6, 314.3 276.8, 342.9 276.8 C 371.4 276.8, 371.4 255.9, 400.0 255.9 C 428.6 255.9, 428.6 230.0, 457.1 230.0 C 485.7 230.0, 485.7 254.1, 514.3 254.1 C 542.9 254.1, 542.9 283.6, 571.4 283.6 C 600.0 283.6, 600.0 281.6, 628.6 281.6 C 657.1 281.6, 657.1 289.3, 685.7 289.3 C 714.3 289.3, 714.3 284.2, 742.9 284.2 C 771.4 284.2, 771.4 247.7, 800.0 247.7" stroke="currentColor" stroke-width="0.68" fill="none" stroke-linecap="round"></path>
    <path d="M 0.0 299.0 C 28.6 299.0, 28.6 292.7, 57.1 292.7 C 85.7 292.7, 85.7 278.4, 114.3 278.4 C 142.9 278.4, 142.9 299.1, 171.4 299.1 C 200.0 299.1, 200.0 332.7, 228.6 332.7 C 257.1 332.7, 257.1 322.1, 285.7 322.1 C 314.3 322.1, 314.3 319.1, 342.9 319.1 C 371.4 319.1, 371.4 286.2, 400.0 286.2 C 428.6 286.2, 428.6 283.6, 457.1 283.6 C 485.7 283.6, 485.7 309.7, 514.3 309.7 C 542.9 309.7, 542.9 311.3, 571.4 311.3 C 600.0 311.3, 600.0 325.1, 628.6 325.1 C 657.1 325.1, 657.1 296.2, 685.7 296.2 C 714.3 296.2, 714.3 284.0, 742.9 284.0 C 771.4 284.0, 771.4 302.0, 800.0 302.0" stroke="currentColor" stroke-width="0.67" fill="none" stroke-linecap="round"></path>
    <path d="M 0.0 387.4 C 28.6 387.4, 28.6 374.1, 57.1 374.1 C 85.7 374.1, 85.7 351.4, 114.3 351.4 C 142.9 351.4, 142.9 344.8, 171.4 344.8 C 200.0 344.8, 200.0 324.3, 228.6 324.3 C 257.1 324.3, 257.1 298.8, 285.7 298.8 C 314.3 298.8, 314.3 315.9, 342.9 315.9 C 371.4 315.9, 371.4 355.6, 400.0 355.6 C 428.6 355.6, 428.6 367.4, 457.1 367.4 C 485.7 367.4, 485.7 367.5, 514.3 367.5 C 542.9 367.5, 542.9 378.3, 571.4 378.3 C 600.0 378.3, 600.0 365.0, 628.6 365.0 C 657.1 365.0, 657.1 325.6, 685.7 325.6 C 714.3 325.6, 714.3 315.6, 742.9 315.6 C 771.4 315.6, 771.4 337.4, 800.0 337.4" stroke="currentColor" stroke-width="0.83" fill="none" stroke-linecap="round"></path>
    <path d="M 0.0 419.0 C 28.6 419.0, 28.6 426.6, 57.1 426.6 C 85.7 426.6, 85.7 407.2, 114.3 407.2 C 142.9 407.2, 142.9 398.3, 171.4 398.3 C 200.0 398.3, 200.0 387.5, 228.6 387.5 C 257.1 387.5, 257.1 359.4, 285.7 359.4 C 314.3 359.4, 314.3 354.8, 342.9 354.8 C 371.4 354.8, 371.4 386.1, 400.0 386.1 C 428.6 386.1, 428.6 406.4, 457.1 406.4 C 485.7 406.4, 485.7 407.5, 514.3 407.5 C 542.9 407.5, 542.9 418.0, 571.4 418.0 C 600.0 418.0, 600.0 418.6, 628.6 418.6 C 657.1 418.6, 657.1 387.6, 685.7 387.6 C 714.3 387.6, 714.3 366.8, 742.9 366.8 C 771.4 366.8, 771.4 380.4, 800.0 380.4" stroke="currentColor" stroke-width="0.88" fill="none" stroke-linecap="round"></path>
    <path d="M 0.0 431.4 C 28.6 431.4, 28.6 427.3, 57.1 427.3 C 85.7 427.3, 85.7 413.3, 114.3 413.3 C 142.9 413.3, 142.9 434.6, 171.4 434.6 C 200.0 434.6, 200.0 471.3, 228.6 471.3 C 257.1 471.3, 257.1 460.6, 285.7 460.6 C 314.3 460.6, 314.3 456.9, 342.9 456.9 C 371.4 456.9, 371.4 429.2, 400.0 429.2 C 428.6 429.2, 428.6 411.4, 457.1 411.4 C 485.7 411.4, 485.7 441.8, 514.3 441.8 C 542.9 441.8, 542.9 446.8, 571.4 446.8 C 600.0 446.8, 600.0 458.5, 628.6 458.5 C 657.1 458.5, 657.1 450.9, 685.7 450.9 C 714.3 450.9, 714.3 416.3, 742.9 416.3 C 771.4 416.3, 771.4 430.3, 800.0 430.3" stroke="currentColor" stroke-width="0.67" fill="none" stroke-linecap="round"></path>
    <path d="M 0.0 468.7 C 28.6 468.7, 28.6 464.6, 57.1 464.6 C 85.7 464.6, 85.7 487.9, 114.3 487.9 C 142.9 487.9, 142.9 530.3, 171.4 530.3 C 200.0 530.3, 200.0 528.5, 228.6 528.5 C 257.1 528.5, 257.1 498.8, 285.7 498.8 C 314.3 498.8, 314.3 488.1, 342.9 488.1 C 371.4 488.1, 371.4 470.2, 400.0 470.2 C 428.6 470.2, 428.6 441.8, 457.1 441.8 C 485.7 441.8, 485.7 457.1, 514.3 457.1 C 542.9 457.1, 542.9 498.5, 571.4 498.5 C 600.0 498.5, 600.0 506.4, 628.6 506.4 C 657.1 506.4, 657.1 502.5, 685.7 502.5 C 714.3 502.5, 714.3 510.7, 742.9 510.7 C 771.4 510.7, 771.4 490.4, 800.0 490.4" stroke="currentColor" stroke-width="0.80" fill="none" stroke-linecap="round"></path>
    <path d="M 0.0 520.1 C 28.6 520.1, 28.6 515.0, 57.1 515.0 C 85.7 515.0, 85.7 511.8, 114.3 511.8 C 142.9 511.8, 142.9 501.2, 171.4 501.2 C 200.0 501.2, 200.0 506.3, 228.6 506.3 C 257.1 506.3, 257.1 534.0, 285.7 534.0 C 314.3 534.0, 314.3 553.0, 342.9 553.0 C 371.4 553.0, 371.4 548.1, 400.0 548.1 C 428.6 548.1, 428.6 541.9, 457.1 541.9 C 485.7 541.9, 485.7 541.1, 514.3 541.1 C 542.9 541.1, 542.9 526.1, 571.4 526.1 C 600.0 526.1, 600.0 502.6, 628.6 502.6 C 657.1 502.6, 657.1 501.7, 685.7 501.7 C 714.3 501.7, 714.3 521.5, 742.9 521.5 C 771.4 521.5, 771.4 531.8, 800.0 531.8" stroke="currentColor" stroke-width="0.63" fill="none" stroke-linecap="round"></path>
    <path d="M 0.0 548.3 C 28.6 548.3, 28.6 545.9, 57.1 545.9 C 85.7 545.9, 85.7 548.7, 114.3 548.7 C 142.9 548.7, 142.9 574.9, 171.4 574.9 C 200.0 574.9, 200.0 590.3, 228.6 590.3 C 257.1 590.3, 257.1 577.0, 285.7 577.0 C 314.3 577.0, 314.3 566.6, 342.9 566.6 C 371.4 566.6, 371.4 560.5, 400.0 560.5 C 428.6 560.5, 428.6 540.6, 457.1 540.6 C 485.7 540.6, 485.7 534.5, 514.3 534.5 C 542.9 534.5, 542.9 557.2, 571.4 557.2 C 600.0 557.2, 600.0 571.3, 628.6 571.3 C 657.1 571.3, 657.1 568.9, 685.7 568.9 C 714.3 568.9, 714.3 574.4, 742.9 574.4 C 771.4 574.4, 771.4 571.6, 800.0 571.6" stroke="currentColor" stroke-width="0.79" fill="none" stroke-linecap="round"></path>
    <path d="M 0.0 583.7 C 28.6 583.7, 28.6 571.9, 57.1 571.9 C 85.7 571.9, 85.7 564.5, 114.3 564.5 C 142.9 564.5, 142.9 543.5, 171.4 543.5 C 200.0 543.5, 200.0 562.4, 228.6 562.4 C 257.1 562.4, 257.1 619.7, 285.7 619.7 C 314.3 619.7, 314.3 641.8, 342.9 641.8 C 371.4 641.8, 371.4 625.9, 400.0 625.9 C 428.6 625.9, 428.6 622.2, 457.1 622.2 C 485.7 622.2, 485.7 609.9, 514.3 609.9 C 542.9 609.9, 542.9 563.2, 571.4 563.2 C 600.0 563.2, 600.0 541.3, 628.6 541.3 C 657.1 541.3, 657.1 574.6, 685.7 574.6 C 714.3 574.6, 714.3 601.3, 742.9 601.3 C 771.4 601.3, 771.4 601.0, 800.0 601.0" stroke="currentColor" stroke-width="0.75" fill="none" stroke-linecap="round"></path>
    <path d="M 0.0 618.7 C 28.6 618.7, 28.6 611.7, 57.1 611.7 C 85.7 611.7, 85.7 595.5, 114.3 595.5 C 142.9 595.5, 142.9 609.7, 171.4 609.7 C 200.0 609.7, 200.0 658.8, 228.6 658.8 C 257.1 658.8, 257.1 653.7, 285.7 653.7 C 314.3 653.7, 314.3 647.7, 342.9 647.7 C 371.4 647.7, 371.4 626.0, 400.0 626.0 C 428.6 626.0, 428.6 590.0, 457.1 590.0 C 485.7 590.0, 485.7 617.7, 514.3 617.7 C 542.9 617.7, 542.9 634.1, 571.4 634.1 C 600.0 634.1, 600.0 640.5, 628.6 640.5 C 657.1 640.5, 657.1 650.5, 685.7 650.5 C 714.3 650.5, 714.3 608.9, 742.9 608.9 C 771.4 608.9, 771.4 602.6, 800.0 602.6" stroke="currentColor" stroke-width="0.73" fill="none" stroke-linecap="round"></path>
    <path d="M 0.0 652.2 C 28.6 652.2, 28.6 648.9, 57.1 648.9 C 85.7 648.9, 85.7 657.7, 114.3 657.7 C 142.9 657.7, 142.9 687.7, 171.4 687.7 C 200.0 687.7, 200.0 704.1, 228.6 704.1 C 257.1 704.1, 257.1 689.3, 285.7 689.3 C 314.3 689.3, 314.3 672.4, 342.9 672.4 C 371.4 672.4, 371.4 667.1, 400.0 667.1 C 428.6 667.1, 428.6 652.4, 457.1 652.4 C 485.7 652.4, 485.7 632.4, 514.3 632.4 C 542.9 632.4, 542.9 639.9, 571.4 639.9 C 600.0 639.9, 600.0 668.8, 628.6 668.8 C 657.1 668.8, 657.1 681.7, 685.7 681.7 C 714.3 681.7, 714.3 677.8, 742.9 677.8 C 771.4 677.8, 771.4 681.6, 800.0 681.6" stroke="currentColor" stroke-width="0.64" fill="none" stroke-linecap="round"></path>
    <path d="M 0.0 698.7 C 28.6 698.7, 28.6 710.4, 57.1 710.4 C 85.7 710.4, 85.7 746.6, 114.3 746.6 C 142.9 746.6, 142.9 733.8, 171.4 733.8 C 200.0 733.8, 200.0 708.4, 228.6 708.4 C 257.1 708.4, 257.1 699.3, 285.7 699.3 C 314.3 699.3, 314.3 676.5, 342.9 676.5 C 371.4 676.5, 371.4 697.1, 400.0 697.1 C 428.6 697.1, 428.6 729.9, 457.1 729.9 C 485.7 729.9, 485.7 724.1, 514.3 724.1 C 542.9 724.1, 542.9 727.4, 571.4 727.4 C 600.0 727.4, 600.0 708.9, 628.6 708.9 C 657.1 708.9, 657.1 683.8, 685.7 683.8 C 714.3 683.8, 714.3 708.8, 742.9 708.8 C 771.4 708.8, 771.4 721.3, 800.0 721.3" stroke="currentColor" stroke-width="0.89" fill="none" stroke-linecap="round"></path>
    <path d="M 0.0 736.0 C 28.6 736.0, 28.6 732.2, 57.1 732.2 C 85.7 732.2, 85.7 788.2, 114.3 788.2 C 142.9 788.2, 142.9 815.8, 171.4 815.8 C 200.0 815.8, 200.0 772.2, 228.6 772.2 C 257.1 772.2, 257.1 757.0, 285.7 757.0 C 314.3 757.0, 314.3 713.0, 342.9 713.0 C 371.4 713.0, 371.4 718.8, 400.0 718.8 C 428.6 718.8, 428.6 778.8, 457.1 778.8 C 485.7 778.8, 485.7 777.5, 514.3 777.5 C 542.9 777.5, 542.9 787.2, 571.4 787.2 C 600.0 787.2, 600.0 759.4, 628.6 759.4 C 657.1 759.4, 657.1 715.8, 685.7 715.8 C 714.3 715.8, 714.3 755.9, 742.9 755.9 C 771.4 755.9, 771.4 771.6, 800.0 771.6" stroke="currentColor" stroke-width="0.79" fill="none" stroke-linecap="round"></path>
    <path d="M 0.0 828.9 C 28.6 828.9, 28.6 805.9, 57.1 805.9 C 85.7 805.9, 85.7 798.4, 114.3 798.4 C 142.9 798.4, 142.9 793.3, 171.4 793.3 C 200.0 793.3, 200.0 776.5, 228.6 776.5 C 257.1 776.5, 257.1 764.7, 285.7 764.7 C 314.3 764.7, 314.3 781.6, 342.9 781.6 C 371.4 781.6, 371.4 817.4, 400.0 817.4 C 428.6 817.4, 428.6 839.2, 457.1 839.2 C 485.7 839.2, 485.7 837.3, 514.3 837.3 C 542.9 837.3, 542.9 832.5, 571.4 832.5 C 600.0 832.5, 600.0 836.0, 628.6 836.0 C 657.1 836.0, 657.1 829.9, 685.7 829.9 C 714.3 829.9, 714.3 802.2, 742.9 802.2 C 771.4 802.2, 771.4 774.7, 800.0 774.7" stroke="currentColor" stroke-width="0.71" fill="none" stroke-linecap="round"></path>
    <path d="M 0.0 843.7 C 28.6 843.7, 28.6 840.8, 57.1 840.8 C 85.7 840.8, 85.7 844.4, 114.3 844.4 C 142.9 844.4, 142.9 875.4, 171.4 875.4 C 200.0 875.4, 200.0 893.8, 228.6 893.8 C 257.1 893.8, 257.1 878.3, 285.7 878.3 C 314.3 878.3, 314.3 865.4, 342.9 865.4 C 371.4 865.4, 371.4 858.7, 400.0 858.7 C 428.6 858.7, 428.6 835.8, 457.1 835.8 C 485.7 835.8, 485.7 826.2, 514.3 826.2 C 542.9 826.2, 542.9 851.6, 571.4 851.6 C 600.0 851.6, 600.0 870.9, 628.6 870.9 C 657.1 870.9, 657.1 868.4, 685.7 868.4 C 714.3 868.4, 714.3 873.6, 742.9 873.6 C 771.4 873.6, 771.4 873.6, 800.0 873.6" stroke="currentColor" stroke-width="0.82" fill="none" stroke-linecap="round"></path>
    <path d="M 0.0 916.7 C 28.6 916.7, 28.6 940.4, 57.1 940.4 C 85.7 940.4, 85.7 920.6, 114.3 920.6 C 142.9 920.6, 142.9 912.3, 171.4 912.3 C 200.0 912.3, 200.0 876.2, 228.6 876.2 C 257.1 876.2, 257.1 884.3, 285.7 884.3 C 314.3 884.3, 314.3 916.7, 342.9 916.7 C 371.4 916.7, 371.4 921.8, 400.0 921.8 C 428.6 921.8, 428.6 936.6, 457.1 936.6 C 485.7 936.6, 485.7 903.1, 514.3 903.1 C 542.9 903.1, 542.9 888.8, 571.4 888.8 C 600.0 888.8, 600.0 905.7, 628.6 905.7 C 657.1 905.7, 657.1 909.4, 685.7 909.4 C 714.3 909.4, 714.3 936.9, 742.9 936.9 C 771.4 936.9, 771.4 913.9, 800.0 913.9" stroke="currentColor" stroke-width="0.71" fill="none" stroke-linecap="round"></path>
    <path d="M 0.0 992.1 C 28.6 992.1, 28.6 996.8, 57.1 996.8 C 85.7 996.8, 85.7 971.7, 114.3 971.7 C 142.9 971.7, 142.9 963.2, 171.4 963.2 C 200.0 963.2, 200.0 942.5, 228.6 942.5 C 257.1 942.5, 257.1 910.3, 285.7 910.3 C 314.3 910.3, 314.3 926.2, 342.9 926.2 C 371.4 926.2, 371.4 967.0, 400.0 967.0 C 428.6 967.0, 428.6 976.2, 457.1 976.2 C 485.7 976.2, 485.7 982.1, 514.3 982.1 C 542.9 982.1, 542.9 993.5, 571.4 993.5 C 600.0 993.5, 600.0 964.7, 628.6 964.7 C 657.1 964.7, 657.1 928.5, 685.7 928.5 C 714.3 928.5, 714.3 939.3, 742.9 939.3 C 771.4 939.3, 771.4 956.4, 800.0 956.4" stroke="currentColor" stroke-width="0.90" fill="none" stroke-linecap="round"></path>
    <path d="M 0.0 988.3 C 28.6 988.3, 28.6 986.0, 57.1 986.0 C 85.7 986.0, 85.7 985.4, 114.3 985.4 C 142.9 985.4, 142.9 1036.5, 171.4 1036.5 C 200.0 1036.5, 200.0 1042.9, 228.6 1042.9 C 257.1 1042.9, 257.1 1022.9, 285.7 1022.9 C 314.3 1022.9, 314.3 1010.0, 342.9 1010.0 C 371.4 1010.0, 371.4 970.4, 400.0 970.4 C 428.6 970.4, 428.6 990.7, 457.1 990.7 C 485.7 990.7, 485.7 1020.1, 514.3 1020.1 C 542.9 1020.1, 542.9 1019.9, 571.4 1019.9 C 600.0 1019.9, 600.0 1032.0, 628.6 1032.0 C 657.1 1032.0, 657.1 995.2, 685.7 995.2 C 714.3 995.2, 714.3 981.2, 742.9 981.2 C 771.4 981.2, 771.4 1009.3, 800.0 1009.3" stroke="currentColor" stroke-width="0.74" fill="none" stroke-linecap="round"></path>
    <path d="M 0.0 1049.3 C 28.6 1049.3, 28.6 1065.8, 57.1 1065.8 C 85.7 1065.8, 85.7 1091.9, 114.3 1091.9 C 142.9 1091.9, 142.9 1070.5, 171.4 1070.5 C 200.0 1070.5, 200.0 1053.2, 228.6 1053.2 C 257.1 1053.2, 257.1 1042.9, 285.7 1042.9 C 314.3 1042.9, 314.3 1028.9, 342.9 1028.9 C 371.4 1028.9, 371.4 1058.9, 400.0 1058.9 C 428.6 1058.9, 428.6 1077.0, 457.1 1077.0 C 485.7 1077.0, 485.7 1069.8, 514.3 1069.8 C 542.9 1069.8, 542.9 1071.6, 571.4 1071.6 C 600.0 1071.6, 600.0 1045.9, 628.6 1045.9 C 657.1 1045.9, 657.1 1039.4, 685.7 1039.4 C 714.3 1039.4, 714.3 1065.3, 742.9 1065.3 C 771.4 1065.3, 771.4 1067.5, 800.0 1067.5" stroke="currentColor" stroke-width="0.68" fill="none" stroke-linecap="round"></path>
    <path d="M 0.0 1097.0 C 28.6 1097.0, 28.6 1094.9, 57.1 1094.9 C 85.7 1094.9, 85.7 1095.7, 114.3 1095.7 C 142.9 1095.7, 142.9 1113.8, 171.4 1113.8 C 200.0 1113.8, 200.0 1134.6, 228.6 1134.6 C 257.1 1134.6, 257.1 1134.7, 285.7 1134.7 C 314.3 1134.7, 314.3 1120.7, 342.9 1120.7 C 371.4 1120.7, 371.4 1113.1, 400.0 1113.1 C 428.6 1113.1, 428.6 1108.7, 457.1 1108.7 C 485.7 1108.7, 485.7 1094.2, 514.3 1094.2 C 542.9 1094.2, 542.9 1081.3, 571.4 1081.3 C 600.0 1081.3, 600.0 1090.2, 628.6 1090.2 C 657.1 1090.2, 657.1 1111.1, 685.7 1111.1 C 714.3 1111.1, 714.3 1119.6, 742.9 1119.6 C 771.4 1119.6, 771.4 1117.0, 800.0 1117.0" stroke="currentColor" stroke-width="0.81" fill="none" stroke-linecap="round"></path>
    <path d="M 0.0 1200.5 C 28.6 1200.5, 28.6 1162.2, 57.1 1162.2 C 85.7 1162.2, 85.7 1150.3, 114.3 1150.3 C 142.9 1150.3, 142.9 1116.7, 171.4 1116.7 C 200.0 1116.7, 200.0 1125.0, 228.6 1125.0 C 257.1 1125.0, 257.1 1181.0, 285.7 1181.0 C 314.3 1181.0, 314.3 1183.3, 342.9 1183.3 C 371.4 1183.3, 371.4 1191.4, 400.0 1191.4 C 428.6 1191.4, 428.6 1163.7, 457.1 1163.7 C 485.7 1163.7, 485.7 1120.9, 514.3 1120.9 C 542.9 1120.9, 542.9 1149.6, 571.4 1149.6 C 600.0 1149.6, 600.0 1159.4, 628.6 1159.4 C 657.1 1159.4, 657.1 1178.2, 685.7 1178.2 C 714.3 1178.2, 714.3 1186.4, 742.9 1186.4 C 771.4 1186.4, 771.4 1133.4, 800.0 1133.4" stroke="currentColor" stroke-width="0.85" fill="none" stroke-linecap="round"></path>
    <path d="M 0.0 1231.0 C 28.6 1231.0, 28.6 1238.6, 57.1 1238.6 C 85.7 1238.6, 85.7 1227.3, 114.3 1227.3 C 142.9 1227.3, 142.9 1215.9, 171.4 1215.9 C 200.0 1215.9, 200.0 1212.4, 228.6 1212.4 C 257.1 1212.4, 257.1 1203.9, 285.7 1203.9 C 314.3 1203.9, 314.3 1184.9, 342.9 1184.9 C 371.4 1184.9, 371.4 1173.5, 400.0 1173.5 C 428.6 1173.5, 428.6 1185.4, 457.1 1185.4 C 485.7 1185.4, 485.7 1208.3, 514.3 1208.3 C 542.9 1208.3, 542.9 1220.2, 571.4 1220.2 C 600.0 1220.2, 600.0 1220.7, 628.6 1220.7 C 657.1 1220.7, 657.1 1225.2, 685.7 1225.2 C 714.3 1225.2, 714.3 1233.1, 742.9 1233.1 C 771.4 1233.1, 771.4 1227.0, 800.0 1227.0" stroke="currentColor" stroke-width="0.61" fill="none" stroke-linecap="round"></path>
    <path d="M 0.0 1243.1 C 28.6 1243.1, 28.6 1255.6, 57.1 1255.6 C 85.7 1255.6, 85.7 1302.7, 114.3 1302.7 C 142.9 1302.7, 142.9 1286.7, 171.4 1286.7 C 200.0 1286.7, 200.0 1256.1, 228.6 1256.1 C 257.1 1256.1, 257.1 1242.7, 285.7 1242.7 C 314.3 1242.7, 314.3 1214.6, 342.9 1214.6 C 371.4 1214.6, 371.4 1249.4, 400.0 1249.4 C 428.6 1249.4, 428.6 1282.6, 457.1 1282.6 C 485.7 1282.6, 485.7 1274.1, 514.3 1274.1 C 542.9 1274.1, 542.9 1279.1, 571.4 1279.1 C 600.0 1279.1, 600.0 1243.1, 628.6 1243.1 C 657.1 1243.1, 657.1 1229.8, 685.7 1229.8 C 714.3 1229.8, 714.3 1266.5, 742.9 1266.5 C 771.4 1266.5, 771.4 1270.6, 800.0 1270.6" stroke="currentColor" stroke-width="0.64" fill="none" stroke-linecap="round"></path>
    <path d="M 0.0 1337.8 C 28.6 1337.8, 28.6 1313.9, 57.1 1313.9 C 85.7 1313.9, 85.7 1302.3, 114.3 1302.3 C 142.9 1302.3, 142.9 1298.2, 171.4 1298.2 C 200.0 1298.2, 200.0 1283.1, 228.6 1283.1 C 257.1 1283.1, 257.1 1266.2, 285.7 1266.2 C 314.3 1266.2, 314.3 1274.9, 342.9 1274.9 C 371.4 1274.9, 371.4 1308.0, 400.0 1308.0 C 428.6 1308.0, 428.6 1333.5, 457.1 1333.5 C 485.7 1333.5, 485.7 1335.1, 514.3 1335.1 C 542.9 1335.1, 542.9 1331.2, 571.4 1331.2 C 600.0 1331.2, 600.0 1335.7, 628.6 1335.7 C 657.1 1335.7, 657.1 1332.1, 685.7 1332.1 C 714.3 1332.1, 714.3 1305.9, 742.9 1305.9 C 771.4 1305.9, 771.4 1278.1, 800.0 1278.1" stroke="currentColor" stroke-width="0.75" fill="none" stroke-linecap="round"></path>
    <path d="M 0.0 1383.7 C 28.6 1383.7, 28.6 1365.8, 57.1 1365.8 C 85.7 1365.8, 85.7 1356.3, 114.3 1356.3 C 142.9 1356.3, 142.9 1350.5, 171.4 1350.5 C 200.0 1350.5, 200.0 1333.5, 228.6 1333.5 C 257.1 1333.5, 257.1 1332.2, 285.7 1332.2 C 314.3 1332.2, 314.3 1358.1, 342.9 1358.1 C 371.4 1358.1, 371.4 1375.2, 400.0 1375.2 C 428.6 1375.2, 428.6 1373.5, 457.1 1373.5 C 485.7 1373.5, 485.7 1376.8, 514.3 1376.8 C 542.9 1376.8, 542.9 1375.3, 571.4 1375.3 C 600.0 1375.3, 600.0 1351.9, 628.6 1351.9 C 657.1 1351.9, 657.1 1336.3, 685.7 1336.3 C 714.3 1336.3, 714.3 1348.5, 742.9 1348.5 C 771.4 1348.5, 771.4 1359.3, 800.0 1359.3" stroke="currentColor" stroke-width="0.69" fill="none" stroke-linecap="round"></path>
  </g>
</svg>